<?xml version="1.0" standalone="no"?>
<!DOCTYPE svg PUBLIC "-//W3C//DTD SVG 20010904//EN"
 "http://www.w3.org/TR/2001/REC-SVG-20010904/DTD/svg10.dtd">
<svg version="1.0" xmlns="http://www.w3.org/2000/svg"
 width="200.000000pt" height="70.000000pt" viewBox="40 50 100.000000 100.000000"
 preserveAspectRatio="xMidYMid meet">
<metadata>
Created by potrace 1.10, written by Peter Selinger 2001-2011
</metadata>
<g transform="translate(0.000000,200.000000) scale(0.100000,-0.100000)"
fill="#008080" stroke="none">
<path d="M1180 1055 c0 -63 4 -105 10 -105 6 0 10 42 10 105 0 63 -4 105 -10
105 -6 0 -10 -42 -10 -105z"/>
<path d="M1290 1055 c0 -63 4 -105 10 -105 6 0 10 5 10 12 0 9 3 9 12 0 19
-19 82 -15 101 6 26 29 22 77 -9 101 -32 25 -61 27 -86 4 -17 -15 -18 -14 -18
35 0 29 -4 52 -10 52 -6 0 -10 -42 -10 -105z m120 -15 c22 -41 -15 -79 -66
-66 -25 7 -42 45 -29 66 19 31 79 31 95 0z"/>
<path d="M180 1130 c0 -5 5 -10 10 -10 6 0 10 5 10 10 0 6 -4 10 -10 10 -5 0
-10 -4 -10 -10z"/>
<path d="M225 1130 c-3 -5 1 -10 10 -10 9 0 13 5 10 10 -3 6 -8 10 -10 10 -2
0 -7 -4 -10 -10z"/>
<path d="M443 1125 c-34 -24 -47 -76 -29 -118 17 -41 41 -57 89 -57 44 0 77
27 80 65 2 29 0 30 -40 33 -26 2 -43 -1 -43 -7 0 -6 14 -11 30 -11 23 0 30 -4
30 -20 0 -41 -76 -54 -110 -18 -43 46 -8 128 55 128 18 0 38 -7 45 -15 10 -12
16 -13 24 -5 32 32 -88 55 -131 25z"/>
<path d="M1232 1128 c5 -15 28 -18 29 -3 0 6 -7 12 -17 13 -10 3 -15 -1 -12
-10z"/>
<path d="M130 1096 c0 -9 7 -16 16 -16 17 0 14 22 -4 28 -7 2 -12 -3 -12 -12z"/>
<path d="M176 1102 c-3 -6 -1 -14 5 -17 15 -10 25 3 12 16 -7 7 -13 7 -17 1z"/>
<path d="M226 1102 c-3 -6 -1 -14 5 -17 15 -10 25 3 12 16 -7 7 -13 7 -17 1z"/>
<path d="M270 1095 c0 -9 5 -15 11 -13 6 2 11 8 11 13 0 5 -5 11 -11 13 -6 2
-11 -4 -11 -13z"/>
<path d="M614 1076 c-26 -19 -15 -28 23 -17 17 5 37 5 46 -1 27 -15 20 -28
-12 -22 -35 7 -67 -9 -76 -36 -11 -35 12 -51 71 -49 l54 2 0 55 c0 40 -5 58
-17 68 -24 18 -64 17 -89 0z m71 -69 c24 -18 11 -37 -26 -37 -33 0 -51 26 -28
41 19 12 32 11 54 -4z"/>
<path d="M745 1078 c-9 -24 -1 -128 10 -131 6 -1 11 21 13 48 5 93 62 96 62 3
0 -67 25 -61 26 6 1 46 16 70 39 63 6 -2 12 -29 15 -60 3 -32 10 -57 15 -57
14 0 9 108 -5 125 -16 19 -44 19 -61 -1 -11 -14 -13 -14 -21 0 -10 18 -44 21
-53 6 -5 -8 -11 -7 -21 1 -11 9 -15 8 -19 -3z"/>
<path d="M976 1069 c-32 -25 -36 -77 -8 -102 24 -22 95 -22 112 -2 16 19 5 34
-12 17 -24 -24 -98 -9 -98 20 0 4 27 8 60 8 74 0 89 19 46 57 -34 28 -65 29
-100 2z m75 -9 c33 -18 21 -30 -32 -30 -52 0 -58 13 -15 30 28 11 25 11 47 0z"/>
<path d="M1234 1076 c-10 -25 1 -119 14 -124 9 -3 12 15 12 67 0 66 -12 93
-26 57z"/>
<path d="M1460 1020 c0 -78 17 -96 22 -24 3 46 10 55 52 69 13 4 16 9 9 16 -6
6 -19 6 -36 0 -17 -7 -27 -7 -27 -1 0 6 -4 10 -10 10 -6 0 -10 -30 -10 -70z"/>
<path d="M1564 1076 c-25 -19 -15 -28 22 -17 36 10 51 5 65 -21 9 -18 8 -18
-10 -9 -29 16 -56 13 -82 -8 -21 -17 -22 -22 -11 -45 11 -26 16 -27 69 -24
l57 3 -3 55 c-2 61 -17 80 -61 80 -14 0 -35 -6 -46 -14z m75 -65 c23 -15 5
-41 -29 -41 -19 0 -33 6 -37 16 -6 17 12 34 37 34 8 0 21 -4 29 -9z"/>
<path d="M1694 1076 c-9 -22 0 -126 11 -126 6 0 11 19 13 42 4 49 14 64 46 70
22 4 24 1 29 -39 3 -27 12 -50 23 -58 24 -18 76 -19 93 -2 10 10 10 7 3 -12
-14 -40 -42 -53 -75 -36 -17 9 -29 10 -33 3 -9 -15 9 -28 49 -35 29 -4 40 -1
62 21 24 24 26 31 23 103 -3 84 -21 107 -26 33 -4 -52 -16 -70 -47 -70 -31 0
-43 18 -47 69 -3 40 -5 44 -32 47 -16 2 -37 -1 -48 -7 -12 -6 -18 -6 -18 1 0
15 -20 12 -26 -4z"/>
<path d="M136 1063 c-11 -11 -6 -23 9 -23 8 0 15 4 15 9 0 13 -16 22 -24 14z"/>
<path d="M175 1060 c-9 -15 4 -30 20 -23 8 3 15 9 15 13 0 12 -29 20 -35 10z"/>
<path d="M225 1060 c-4 -6 -3 -16 3 -22 6 -6 12 -6 17 2 4 6 3 16 -3 22 -6 6
-12 6 -17 -2z"/>
<path d="M275 1059 c-10 -15 3 -25 16 -12 7 7 7 13 1 17 -6 3 -14 1 -17 -5z"/>
<path d="M100 1050 c0 -5 5 -10 10 -10 6 0 10 5 10 10 0 6 -4 10 -10 10 -5 0
-10 -4 -10 -10z"/>
<path d="M310 1050 c0 -5 5 -10 10 -10 6 0 10 5 10 10 0 6 -4 10 -10 10 -5 0
-10 -4 -10 -10z"/>
<path d="M100 1010 c0 -5 5 -10 10 -10 6 0 10 5 10 10 0 6 -4 10 -10 10 -5 0
-10 -4 -10 -10z"/>
<path d="M132 1011 c4 -13 18 -16 19 -4 0 4 -5 9 -11 12 -7 2 -11 -2 -8 -8z"/>
<path d="M172 1008 c5 -15 28 -18 29 -3 0 6 -7 12 -17 13 -10 3 -15 -1 -12
-10z"/>
<path d="M220 1005 c0 -10 7 -15 18 -13 21 4 19 22 -2 26 -10 2 -16 -3 -16
-13z"/>
<path d="M272 1011 c4 -13 18 -16 19 -4 0 4 -5 9 -11 12 -7 2 -11 -2 -8 -8z"/>
<path d="M310 1010 c0 -5 5 -10 10 -10 6 0 10 5 10 10 0 6 -4 10 -10 10 -5 0
-10 -4 -10 -10z"/>
<path d="M130 965 c0 -9 5 -15 11 -13 6 2 11 8 11 13 0 5 -5 11 -11 13 -6 2
-11 -4 -11 -13z"/>
<path d="M177 974 c-8 -8 1 -24 14 -24 5 0 9 7 9 15 0 15 -12 20 -23 9z"/>
<path d="M227 974 c-8 -8 1 -24 14 -24 5 0 9 7 9 15 0 15 -12 20 -23 9z"/>
<path d="M270 965 c0 -9 5 -15 11 -13 6 2 11 8 11 13 0 5 -5 11 -11 13 -6 2
-11 -4 -11 -13z"/>
<path d="M180 930 c0 -5 5 -10 10 -10 6 0 10 5 10 10 0 6 -4 10 -10 10 -5 0
-10 -4 -10 -10z"/>
<path d="M230 930 c0 -5 5 -10 10 -10 6 0 10 5 10 10 0 6 -4 10 -10 10 -5 0
-10 -4 -10 -10z"/>
</g>
</svg>
